<mxfile host="app.diagrams.net" agent="Mozilla/5.0 (Windows NT 10.0; Win64; x64) AppleWebKit/537.36 (KHTML, like Gecko) Chrome/134.0.0.0 Safari/537.36" version="26.1.1">
  <diagram name="第 1 页" id="f0_BZ57KzPiDDP8eszM3">
    <mxGraphModel dx="2000" dy="981" grid="1" gridSize="10" guides="1" tooltips="1" connect="1" arrows="1" fold="1" page="1" pageScale="1" pageWidth="827" pageHeight="1169" math="0" shadow="0">
      <root>
        <mxCell id="0" />
        <mxCell id="1" parent="0" />
        <mxCell id="QkNpWJC_C5E6-QBLKThF-1" value="&lt;font style=&quot;font-size: 18px;&quot;&gt;访客登记&lt;/font&gt;" style="rounded=0;whiteSpace=wrap;html=1;" vertex="1" parent="1">
          <mxGeometry x="290" y="320" width="100" height="50" as="geometry" />
        </mxCell>
        <mxCell id="QkNpWJC_C5E6-QBLKThF-2" value="&lt;font style=&quot;font-size: 18px;&quot;&gt;学生学号&lt;/font&gt;" style="ellipse;whiteSpace=wrap;html=1;" vertex="1" parent="1">
          <mxGeometry x="20" y="160" width="110" height="70" as="geometry" />
        </mxCell>
        <mxCell id="QkNpWJC_C5E6-QBLKThF-3" value="" style="endArrow=none;html=1;rounded=0;entryX=1;entryY=1;entryDx=0;entryDy=0;exitX=0.5;exitY=0;exitDx=0;exitDy=0;" edge="1" parent="1" source="QkNpWJC_C5E6-QBLKThF-1" target="QkNpWJC_C5E6-QBLKThF-2">
          <mxGeometry width="50" height="50" relative="1" as="geometry">
            <mxPoint x="390" y="380" as="sourcePoint" />
            <mxPoint x="440" y="330" as="targetPoint" />
          </mxGeometry>
        </mxCell>
        <mxCell id="QkNpWJC_C5E6-QBLKThF-4" value="&lt;font style=&quot;font-size: 18px;&quot;&gt;学生姓名&lt;/font&gt;" style="ellipse;whiteSpace=wrap;html=1;" vertex="1" parent="1">
          <mxGeometry x="70" y="80" width="110" height="70" as="geometry" />
        </mxCell>
        <mxCell id="QkNpWJC_C5E6-QBLKThF-5" value="" style="endArrow=none;html=1;rounded=0;entryX=0.5;entryY=1;entryDx=0;entryDy=0;exitX=0.5;exitY=0;exitDx=0;exitDy=0;" edge="1" parent="1" source="QkNpWJC_C5E6-QBLKThF-1" target="QkNpWJC_C5E6-QBLKThF-4">
          <mxGeometry width="50" height="50" relative="1" as="geometry">
            <mxPoint x="390" y="380" as="sourcePoint" />
            <mxPoint x="440" y="330" as="targetPoint" />
          </mxGeometry>
        </mxCell>
        <mxCell id="QkNpWJC_C5E6-QBLKThF-6" value="" style="endArrow=none;html=1;rounded=0;entryX=0.5;entryY=1;entryDx=0;entryDy=0;exitX=0.5;exitY=0;exitDx=0;exitDy=0;" edge="1" parent="1" source="QkNpWJC_C5E6-QBLKThF-1" target="QkNpWJC_C5E6-QBLKThF-8">
          <mxGeometry width="50" height="50" relative="1" as="geometry">
            <mxPoint x="575" y="360" as="sourcePoint" />
            <mxPoint x="520" y="220" as="targetPoint" />
          </mxGeometry>
        </mxCell>
        <mxCell id="QkNpWJC_C5E6-QBLKThF-8" value="&lt;font style=&quot;font-size: 18px;&quot;&gt;登记编号&lt;/font&gt;" style="ellipse;whiteSpace=wrap;html=1;" vertex="1" parent="1">
          <mxGeometry x="150" y="20" width="110" height="70" as="geometry" />
        </mxCell>
        <mxCell id="QkNpWJC_C5E6-QBLKThF-9" value="&lt;font style=&quot;font-size: 18px;&quot;&gt;来访人姓名&lt;/font&gt;" style="ellipse;whiteSpace=wrap;html=1;" vertex="1" parent="1">
          <mxGeometry x="270" width="110" height="70" as="geometry" />
        </mxCell>
        <mxCell id="QkNpWJC_C5E6-QBLKThF-10" value="&lt;font style=&quot;font-size: 18px;&quot;&gt;来访人手机&lt;/font&gt;" style="ellipse;whiteSpace=wrap;html=1;" vertex="1" parent="1">
          <mxGeometry x="390" width="110" height="70" as="geometry" />
        </mxCell>
        <mxCell id="QkNpWJC_C5E6-QBLKThF-11" value="&lt;span style=&quot;font-size: 18px;&quot;&gt;被访人姓名&lt;/span&gt;" style="ellipse;whiteSpace=wrap;html=1;" vertex="1" parent="1">
          <mxGeometry x="520" y="50" width="110" height="70" as="geometry" />
        </mxCell>
        <mxCell id="QkNpWJC_C5E6-QBLKThF-12" value="&lt;span style=&quot;font-size: 18px;&quot;&gt;来访时间&lt;/span&gt;" style="ellipse;whiteSpace=wrap;html=1;" vertex="1" parent="1">
          <mxGeometry x="540" y="140" width="110" height="70" as="geometry" />
        </mxCell>
        <mxCell id="QkNpWJC_C5E6-QBLKThF-13" value="" style="endArrow=none;html=1;rounded=0;entryX=0.5;entryY=1;entryDx=0;entryDy=0;exitX=0.5;exitY=0;exitDx=0;exitDy=0;" edge="1" parent="1" source="QkNpWJC_C5E6-QBLKThF-1" target="QkNpWJC_C5E6-QBLKThF-9">
          <mxGeometry width="50" height="50" relative="1" as="geometry">
            <mxPoint x="390" y="380" as="sourcePoint" />
            <mxPoint x="440" y="330" as="targetPoint" />
          </mxGeometry>
        </mxCell>
        <mxCell id="QkNpWJC_C5E6-QBLKThF-14" value="" style="endArrow=none;html=1;rounded=0;entryX=0.5;entryY=1;entryDx=0;entryDy=0;exitX=0.5;exitY=0;exitDx=0;exitDy=0;" edge="1" parent="1" source="QkNpWJC_C5E6-QBLKThF-1" target="QkNpWJC_C5E6-QBLKThF-10">
          <mxGeometry width="50" height="50" relative="1" as="geometry">
            <mxPoint x="350" y="330" as="sourcePoint" />
            <mxPoint x="275" y="90" as="targetPoint" />
          </mxGeometry>
        </mxCell>
        <mxCell id="QkNpWJC_C5E6-QBLKThF-15" value="" style="endArrow=none;html=1;rounded=0;entryX=0.5;entryY=1;entryDx=0;entryDy=0;exitX=0.5;exitY=0;exitDx=0;exitDy=0;" edge="1" parent="1" source="QkNpWJC_C5E6-QBLKThF-1" target="QkNpWJC_C5E6-QBLKThF-11">
          <mxGeometry width="50" height="50" relative="1" as="geometry">
            <mxPoint x="350" y="355" as="sourcePoint" />
            <mxPoint x="495" y="135" as="targetPoint" />
          </mxGeometry>
        </mxCell>
        <mxCell id="QkNpWJC_C5E6-QBLKThF-16" value="" style="endArrow=none;html=1;rounded=0;entryX=0;entryY=1;entryDx=0;entryDy=0;exitX=0.5;exitY=0;exitDx=0;exitDy=0;" edge="1" parent="1" source="QkNpWJC_C5E6-QBLKThF-1" target="QkNpWJC_C5E6-QBLKThF-12">
          <mxGeometry width="50" height="50" relative="1" as="geometry">
            <mxPoint x="350" y="330" as="sourcePoint" />
            <mxPoint x="515" y="90" as="targetPoint" />
          </mxGeometry>
        </mxCell>
        <mxCell id="QkNpWJC_C5E6-QBLKThF-17" value="&lt;font style=&quot;font-size: 18px;&quot;&gt;缴费信息&lt;/font&gt;" style="rounded=0;whiteSpace=wrap;html=1;" vertex="1" parent="1">
          <mxGeometry x="295" y="730" width="100" height="50" as="geometry" />
        </mxCell>
        <mxCell id="QkNpWJC_C5E6-QBLKThF-18" value="&lt;font style=&quot;font-size: 18px;&quot;&gt;学生学号&lt;/font&gt;" style="ellipse;whiteSpace=wrap;html=1;" vertex="1" parent="1">
          <mxGeometry x="25" y="570" width="110" height="70" as="geometry" />
        </mxCell>
        <mxCell id="QkNpWJC_C5E6-QBLKThF-19" value="" style="endArrow=none;html=1;rounded=0;entryX=1;entryY=1;entryDx=0;entryDy=0;exitX=0.5;exitY=0;exitDx=0;exitDy=0;" edge="1" parent="1" source="QkNpWJC_C5E6-QBLKThF-17" target="QkNpWJC_C5E6-QBLKThF-18">
          <mxGeometry width="50" height="50" relative="1" as="geometry">
            <mxPoint x="395" y="790" as="sourcePoint" />
            <mxPoint x="445" y="740" as="targetPoint" />
          </mxGeometry>
        </mxCell>
        <mxCell id="QkNpWJC_C5E6-QBLKThF-20" value="&lt;font style=&quot;font-size: 18px;&quot;&gt;学生姓名&lt;/font&gt;" style="ellipse;whiteSpace=wrap;html=1;" vertex="1" parent="1">
          <mxGeometry x="75" y="490" width="110" height="70" as="geometry" />
        </mxCell>
        <mxCell id="QkNpWJC_C5E6-QBLKThF-21" value="" style="endArrow=none;html=1;rounded=0;entryX=0.5;entryY=1;entryDx=0;entryDy=0;exitX=0.5;exitY=0;exitDx=0;exitDy=0;" edge="1" parent="1" source="QkNpWJC_C5E6-QBLKThF-17" target="QkNpWJC_C5E6-QBLKThF-20">
          <mxGeometry width="50" height="50" relative="1" as="geometry">
            <mxPoint x="395" y="790" as="sourcePoint" />
            <mxPoint x="445" y="740" as="targetPoint" />
          </mxGeometry>
        </mxCell>
        <mxCell id="QkNpWJC_C5E6-QBLKThF-22" value="" style="endArrow=none;html=1;rounded=0;entryX=0.5;entryY=1;entryDx=0;entryDy=0;exitX=0.5;exitY=0;exitDx=0;exitDy=0;" edge="1" parent="1" source="QkNpWJC_C5E6-QBLKThF-17" target="QkNpWJC_C5E6-QBLKThF-23">
          <mxGeometry width="50" height="50" relative="1" as="geometry">
            <mxPoint x="580" y="770" as="sourcePoint" />
            <mxPoint x="525" y="630" as="targetPoint" />
          </mxGeometry>
        </mxCell>
        <mxCell id="QkNpWJC_C5E6-QBLKThF-23" value="&lt;font style=&quot;font-size: 18px;&quot;&gt;宿舍号&lt;/font&gt;" style="ellipse;whiteSpace=wrap;html=1;" vertex="1" parent="1">
          <mxGeometry x="155" y="430" width="110" height="70" as="geometry" />
        </mxCell>
        <mxCell id="QkNpWJC_C5E6-QBLKThF-24" value="&lt;font style=&quot;font-size: 18px;&quot;&gt;缴费类型&lt;/font&gt;" style="ellipse;whiteSpace=wrap;html=1;" vertex="1" parent="1">
          <mxGeometry x="275" y="410" width="110" height="70" as="geometry" />
        </mxCell>
        <mxCell id="QkNpWJC_C5E6-QBLKThF-25" value="&lt;font style=&quot;font-size: 18px;&quot;&gt;缴费金额&lt;/font&gt;" style="ellipse;whiteSpace=wrap;html=1;" vertex="1" parent="1">
          <mxGeometry x="395" y="410" width="110" height="70" as="geometry" />
        </mxCell>
        <mxCell id="QkNpWJC_C5E6-QBLKThF-26" value="&lt;span style=&quot;font-size: 18px;&quot;&gt;附件&lt;/span&gt;" style="ellipse;whiteSpace=wrap;html=1;" vertex="1" parent="1">
          <mxGeometry x="525" y="460" width="110" height="70" as="geometry" />
        </mxCell>
        <mxCell id="QkNpWJC_C5E6-QBLKThF-27" value="&lt;span style=&quot;font-size: 18px;&quot;&gt;是否支付&lt;/span&gt;" style="ellipse;whiteSpace=wrap;html=1;" vertex="1" parent="1">
          <mxGeometry x="545" y="550" width="110" height="70" as="geometry" />
        </mxCell>
        <mxCell id="QkNpWJC_C5E6-QBLKThF-28" value="" style="endArrow=none;html=1;rounded=0;entryX=0.5;entryY=1;entryDx=0;entryDy=0;exitX=0.5;exitY=0;exitDx=0;exitDy=0;" edge="1" parent="1" source="QkNpWJC_C5E6-QBLKThF-17" target="QkNpWJC_C5E6-QBLKThF-24">
          <mxGeometry width="50" height="50" relative="1" as="geometry">
            <mxPoint x="395" y="790" as="sourcePoint" />
            <mxPoint x="445" y="740" as="targetPoint" />
          </mxGeometry>
        </mxCell>
        <mxCell id="QkNpWJC_C5E6-QBLKThF-29" value="" style="endArrow=none;html=1;rounded=0;entryX=0.5;entryY=1;entryDx=0;entryDy=0;exitX=0.5;exitY=0;exitDx=0;exitDy=0;" edge="1" parent="1" source="QkNpWJC_C5E6-QBLKThF-17" target="QkNpWJC_C5E6-QBLKThF-25">
          <mxGeometry width="50" height="50" relative="1" as="geometry">
            <mxPoint x="355" y="740" as="sourcePoint" />
            <mxPoint x="280" y="500" as="targetPoint" />
          </mxGeometry>
        </mxCell>
        <mxCell id="QkNpWJC_C5E6-QBLKThF-30" value="" style="endArrow=none;html=1;rounded=0;entryX=0.5;entryY=1;entryDx=0;entryDy=0;exitX=0.5;exitY=0;exitDx=0;exitDy=0;" edge="1" parent="1" source="QkNpWJC_C5E6-QBLKThF-17" target="QkNpWJC_C5E6-QBLKThF-26">
          <mxGeometry width="50" height="50" relative="1" as="geometry">
            <mxPoint x="355" y="765" as="sourcePoint" />
            <mxPoint x="500" y="545" as="targetPoint" />
          </mxGeometry>
        </mxCell>
        <mxCell id="QkNpWJC_C5E6-QBLKThF-31" value="" style="endArrow=none;html=1;rounded=0;entryX=0;entryY=1;entryDx=0;entryDy=0;exitX=0.5;exitY=0;exitDx=0;exitDy=0;" edge="1" parent="1" source="QkNpWJC_C5E6-QBLKThF-17" target="QkNpWJC_C5E6-QBLKThF-27">
          <mxGeometry width="50" height="50" relative="1" as="geometry">
            <mxPoint x="355" y="740" as="sourcePoint" />
            <mxPoint x="520" y="500" as="targetPoint" />
          </mxGeometry>
        </mxCell>
        <mxCell id="QkNpWJC_C5E6-QBLKThF-32" value="&lt;font style=&quot;font-size: 18px;&quot;&gt;缴费信息&lt;/font&gt;" style="rounded=0;whiteSpace=wrap;html=1;" vertex="1" parent="1">
          <mxGeometry x="295" y="1140" width="100" height="50" as="geometry" />
        </mxCell>
        <mxCell id="QkNpWJC_C5E6-QBLKThF-33" value="&lt;font style=&quot;font-size: 18px;&quot;&gt;学生学号&lt;/font&gt;" style="ellipse;whiteSpace=wrap;html=1;" vertex="1" parent="1">
          <mxGeometry x="25" y="980" width="110" height="70" as="geometry" />
        </mxCell>
        <mxCell id="QkNpWJC_C5E6-QBLKThF-34" value="" style="endArrow=none;html=1;rounded=0;entryX=1;entryY=1;entryDx=0;entryDy=0;exitX=0.5;exitY=0;exitDx=0;exitDy=0;" edge="1" parent="1" source="QkNpWJC_C5E6-QBLKThF-32" target="QkNpWJC_C5E6-QBLKThF-33">
          <mxGeometry width="50" height="50" relative="1" as="geometry">
            <mxPoint x="395" y="1200" as="sourcePoint" />
            <mxPoint x="445" y="1150" as="targetPoint" />
          </mxGeometry>
        </mxCell>
        <mxCell id="QkNpWJC_C5E6-QBLKThF-35" value="&lt;font style=&quot;font-size: 18px;&quot;&gt;学生姓名&lt;/font&gt;" style="ellipse;whiteSpace=wrap;html=1;" vertex="1" parent="1">
          <mxGeometry x="75" y="900" width="110" height="70" as="geometry" />
        </mxCell>
        <mxCell id="QkNpWJC_C5E6-QBLKThF-36" value="" style="endArrow=none;html=1;rounded=0;entryX=0.5;entryY=1;entryDx=0;entryDy=0;exitX=0.5;exitY=0;exitDx=0;exitDy=0;" edge="1" parent="1" source="QkNpWJC_C5E6-QBLKThF-32" target="QkNpWJC_C5E6-QBLKThF-35">
          <mxGeometry width="50" height="50" relative="1" as="geometry">
            <mxPoint x="395" y="1200" as="sourcePoint" />
            <mxPoint x="445" y="1150" as="targetPoint" />
          </mxGeometry>
        </mxCell>
        <mxCell id="QkNpWJC_C5E6-QBLKThF-37" value="" style="endArrow=none;html=1;rounded=0;entryX=0.5;entryY=1;entryDx=0;entryDy=0;exitX=0.5;exitY=0;exitDx=0;exitDy=0;" edge="1" parent="1" source="QkNpWJC_C5E6-QBLKThF-32" target="QkNpWJC_C5E6-QBLKThF-38">
          <mxGeometry width="50" height="50" relative="1" as="geometry">
            <mxPoint x="580" y="1180" as="sourcePoint" />
            <mxPoint x="525" y="1040" as="targetPoint" />
          </mxGeometry>
        </mxCell>
        <mxCell id="QkNpWJC_C5E6-QBLKThF-38" value="&lt;font style=&quot;font-size: 18px;&quot;&gt;宿舍号&lt;/font&gt;" style="ellipse;whiteSpace=wrap;html=1;" vertex="1" parent="1">
          <mxGeometry x="155" y="840" width="110" height="70" as="geometry" />
        </mxCell>
        <mxCell id="QkNpWJC_C5E6-QBLKThF-39" value="&lt;font style=&quot;font-size: 18px;&quot;&gt;缴费类型&lt;/font&gt;" style="ellipse;whiteSpace=wrap;html=1;" vertex="1" parent="1">
          <mxGeometry x="275" y="820" width="110" height="70" as="geometry" />
        </mxCell>
        <mxCell id="QkNpWJC_C5E6-QBLKThF-40" value="&lt;font style=&quot;font-size: 18px;&quot;&gt;缴费金额&lt;/font&gt;" style="ellipse;whiteSpace=wrap;html=1;" vertex="1" parent="1">
          <mxGeometry x="395" y="820" width="110" height="70" as="geometry" />
        </mxCell>
        <mxCell id="QkNpWJC_C5E6-QBLKThF-41" value="&lt;span style=&quot;font-size: 18px;&quot;&gt;附件&lt;/span&gt;" style="ellipse;whiteSpace=wrap;html=1;" vertex="1" parent="1">
          <mxGeometry x="525" y="870" width="110" height="70" as="geometry" />
        </mxCell>
        <mxCell id="QkNpWJC_C5E6-QBLKThF-42" value="&lt;span style=&quot;font-size: 18px;&quot;&gt;是否支付&lt;/span&gt;" style="ellipse;whiteSpace=wrap;html=1;" vertex="1" parent="1">
          <mxGeometry x="545" y="960" width="110" height="70" as="geometry" />
        </mxCell>
        <mxCell id="QkNpWJC_C5E6-QBLKThF-43" value="" style="endArrow=none;html=1;rounded=0;entryX=0.5;entryY=1;entryDx=0;entryDy=0;exitX=0.5;exitY=0;exitDx=0;exitDy=0;" edge="1" parent="1" source="QkNpWJC_C5E6-QBLKThF-32" target="QkNpWJC_C5E6-QBLKThF-39">
          <mxGeometry width="50" height="50" relative="1" as="geometry">
            <mxPoint x="395" y="1200" as="sourcePoint" />
            <mxPoint x="445" y="1150" as="targetPoint" />
          </mxGeometry>
        </mxCell>
        <mxCell id="QkNpWJC_C5E6-QBLKThF-44" value="" style="endArrow=none;html=1;rounded=0;entryX=0.5;entryY=1;entryDx=0;entryDy=0;exitX=0.5;exitY=0;exitDx=0;exitDy=0;" edge="1" parent="1" source="QkNpWJC_C5E6-QBLKThF-32" target="QkNpWJC_C5E6-QBLKThF-40">
          <mxGeometry width="50" height="50" relative="1" as="geometry">
            <mxPoint x="355" y="1150" as="sourcePoint" />
            <mxPoint x="280" y="910" as="targetPoint" />
          </mxGeometry>
        </mxCell>
        <mxCell id="QkNpWJC_C5E6-QBLKThF-45" value="" style="endArrow=none;html=1;rounded=0;entryX=0.5;entryY=1;entryDx=0;entryDy=0;exitX=0.5;exitY=0;exitDx=0;exitDy=0;" edge="1" parent="1" source="QkNpWJC_C5E6-QBLKThF-32" target="QkNpWJC_C5E6-QBLKThF-41">
          <mxGeometry width="50" height="50" relative="1" as="geometry">
            <mxPoint x="355" y="1175" as="sourcePoint" />
            <mxPoint x="500" y="955" as="targetPoint" />
          </mxGeometry>
        </mxCell>
        <mxCell id="QkNpWJC_C5E6-QBLKThF-46" value="" style="endArrow=none;html=1;rounded=0;entryX=0;entryY=1;entryDx=0;entryDy=0;exitX=0.5;exitY=0;exitDx=0;exitDy=0;" edge="1" parent="1" source="QkNpWJC_C5E6-QBLKThF-32" target="QkNpWJC_C5E6-QBLKThF-42">
          <mxGeometry width="50" height="50" relative="1" as="geometry">
            <mxPoint x="355" y="1150" as="sourcePoint" />
            <mxPoint x="520" y="910" as="targetPoint" />
          </mxGeometry>
        </mxCell>
        <mxCell id="QkNpWJC_C5E6-QBLKThF-47" value="&lt;font style=&quot;font-size: 18px;&quot;&gt;宿舍房间&lt;/font&gt;" style="rounded=0;whiteSpace=wrap;html=1;" vertex="1" parent="1">
          <mxGeometry x="300" y="1590" width="100" height="50" as="geometry" />
        </mxCell>
        <mxCell id="QkNpWJC_C5E6-QBLKThF-48" value="&lt;span style=&quot;font-size: 18px;&quot;&gt;宿舍号&lt;/span&gt;" style="ellipse;whiteSpace=wrap;html=1;" vertex="1" parent="1">
          <mxGeometry x="100" y="1390" width="110" height="70" as="geometry" />
        </mxCell>
        <mxCell id="QkNpWJC_C5E6-QBLKThF-49" value="" style="endArrow=none;html=1;rounded=0;entryX=1;entryY=1;entryDx=0;entryDy=0;exitX=0.5;exitY=0;exitDx=0;exitDy=0;" edge="1" parent="1" source="QkNpWJC_C5E6-QBLKThF-47" target="QkNpWJC_C5E6-QBLKThF-48">
          <mxGeometry width="50" height="50" relative="1" as="geometry">
            <mxPoint x="400" y="1650" as="sourcePoint" />
            <mxPoint x="450" y="1600" as="targetPoint" />
          </mxGeometry>
        </mxCell>
        <mxCell id="QkNpWJC_C5E6-QBLKThF-50" value="&lt;span style=&quot;font-size: 18px;&quot;&gt;宿舍楼栋&lt;/span&gt;" style="ellipse;whiteSpace=wrap;html=1;" vertex="1" parent="1">
          <mxGeometry x="155" y="1310" width="110" height="70" as="geometry" />
        </mxCell>
        <mxCell id="QkNpWJC_C5E6-QBLKThF-51" value="" style="endArrow=none;html=1;rounded=0;entryX=0.5;entryY=1;entryDx=0;entryDy=0;exitX=0.5;exitY=0;exitDx=0;exitDy=0;" edge="1" parent="1" source="QkNpWJC_C5E6-QBLKThF-47" target="QkNpWJC_C5E6-QBLKThF-50">
          <mxGeometry width="50" height="50" relative="1" as="geometry">
            <mxPoint x="400" y="1650" as="sourcePoint" />
            <mxPoint x="450" y="1600" as="targetPoint" />
          </mxGeometry>
        </mxCell>
        <mxCell id="QkNpWJC_C5E6-QBLKThF-52" value="" style="endArrow=none;html=1;rounded=0;entryX=0.5;entryY=1;entryDx=0;entryDy=0;exitX=0.5;exitY=0;exitDx=0;exitDy=0;" edge="1" parent="1" source="QkNpWJC_C5E6-QBLKThF-47" target="QkNpWJC_C5E6-QBLKThF-53">
          <mxGeometry width="50" height="50" relative="1" as="geometry">
            <mxPoint x="585" y="1630" as="sourcePoint" />
            <mxPoint x="530" y="1490" as="targetPoint" />
          </mxGeometry>
        </mxCell>
        <mxCell id="QkNpWJC_C5E6-QBLKThF-53" value="&lt;span style=&quot;font-size: 18px;&quot;&gt;床位号&lt;/span&gt;" style="ellipse;whiteSpace=wrap;html=1;" vertex="1" parent="1">
          <mxGeometry x="295" y="1260" width="110" height="70" as="geometry" />
        </mxCell>
        <mxCell id="QkNpWJC_C5E6-QBLKThF-54" value="&lt;span style=&quot;font-size: 18px;&quot;&gt;房间图&lt;/span&gt;" style="ellipse;whiteSpace=wrap;html=1;" vertex="1" parent="1">
          <mxGeometry x="470" y="1310" width="110" height="70" as="geometry" />
        </mxCell>
        <mxCell id="QkNpWJC_C5E6-QBLKThF-55" value="&lt;font style=&quot;font-size: 18px;&quot;&gt;宿舍设施&lt;/font&gt;" style="ellipse;whiteSpace=wrap;html=1;" vertex="1" parent="1">
          <mxGeometry x="505" y="1390" width="110" height="70" as="geometry" />
        </mxCell>
        <mxCell id="QkNpWJC_C5E6-QBLKThF-58" value="" style="endArrow=none;html=1;rounded=0;entryX=0.5;entryY=1;entryDx=0;entryDy=0;exitX=0.5;exitY=0;exitDx=0;exitDy=0;" edge="1" parent="1" source="QkNpWJC_C5E6-QBLKThF-47" target="QkNpWJC_C5E6-QBLKThF-54">
          <mxGeometry width="50" height="50" relative="1" as="geometry">
            <mxPoint x="400" y="1650" as="sourcePoint" />
            <mxPoint x="450" y="1600" as="targetPoint" />
          </mxGeometry>
        </mxCell>
        <mxCell id="QkNpWJC_C5E6-QBLKThF-59" value="" style="endArrow=none;html=1;rounded=0;entryX=0.5;entryY=1;entryDx=0;entryDy=0;exitX=0.5;exitY=0;exitDx=0;exitDy=0;" edge="1" parent="1" source="QkNpWJC_C5E6-QBLKThF-47" target="QkNpWJC_C5E6-QBLKThF-55">
          <mxGeometry width="50" height="50" relative="1" as="geometry">
            <mxPoint x="360" y="1600" as="sourcePoint" />
            <mxPoint x="285" y="1360" as="targetPoint" />
          </mxGeometry>
        </mxCell>
        <mxCell id="QkNpWJC_C5E6-QBLKThF-62" value="&lt;font style=&quot;font-size: 18px;&quot;&gt;宿舍房间&lt;/font&gt;" style="rounded=0;whiteSpace=wrap;html=1;" vertex="1" parent="1">
          <mxGeometry x="300" y="1990" width="100" height="50" as="geometry" />
        </mxCell>
        <mxCell id="QkNpWJC_C5E6-QBLKThF-63" value="&lt;span style=&quot;font-size: 18px;&quot;&gt;宿舍号&lt;/span&gt;" style="ellipse;whiteSpace=wrap;html=1;" vertex="1" parent="1">
          <mxGeometry x="100" y="1790" width="110" height="70" as="geometry" />
        </mxCell>
        <mxCell id="QkNpWJC_C5E6-QBLKThF-64" value="" style="endArrow=none;html=1;rounded=0;entryX=1;entryY=1;entryDx=0;entryDy=0;exitX=0.5;exitY=0;exitDx=0;exitDy=0;" edge="1" parent="1" source="QkNpWJC_C5E6-QBLKThF-62" target="QkNpWJC_C5E6-QBLKThF-63">
          <mxGeometry width="50" height="50" relative="1" as="geometry">
            <mxPoint x="400" y="2050" as="sourcePoint" />
            <mxPoint x="450" y="2000" as="targetPoint" />
          </mxGeometry>
        </mxCell>
        <mxCell id="QkNpWJC_C5E6-QBLKThF-65" value="&lt;span style=&quot;font-size: 18px;&quot;&gt;宿舍楼栋&lt;/span&gt;" style="ellipse;whiteSpace=wrap;html=1;" vertex="1" parent="1">
          <mxGeometry x="155" y="1710" width="110" height="70" as="geometry" />
        </mxCell>
        <mxCell id="QkNpWJC_C5E6-QBLKThF-66" value="" style="endArrow=none;html=1;rounded=0;entryX=0.5;entryY=1;entryDx=0;entryDy=0;exitX=0.5;exitY=0;exitDx=0;exitDy=0;" edge="1" parent="1" source="QkNpWJC_C5E6-QBLKThF-62" target="QkNpWJC_C5E6-QBLKThF-65">
          <mxGeometry width="50" height="50" relative="1" as="geometry">
            <mxPoint x="400" y="2050" as="sourcePoint" />
            <mxPoint x="450" y="2000" as="targetPoint" />
          </mxGeometry>
        </mxCell>
        <mxCell id="QkNpWJC_C5E6-QBLKThF-67" value="" style="endArrow=none;html=1;rounded=0;entryX=0.5;entryY=1;entryDx=0;entryDy=0;exitX=0.5;exitY=0;exitDx=0;exitDy=0;" edge="1" parent="1" source="QkNpWJC_C5E6-QBLKThF-62" target="QkNpWJC_C5E6-QBLKThF-68">
          <mxGeometry width="50" height="50" relative="1" as="geometry">
            <mxPoint x="585" y="2030" as="sourcePoint" />
            <mxPoint x="530" y="1890" as="targetPoint" />
          </mxGeometry>
        </mxCell>
        <mxCell id="QkNpWJC_C5E6-QBLKThF-68" value="&lt;span style=&quot;font-size: 18px;&quot;&gt;床位号&lt;/span&gt;" style="ellipse;whiteSpace=wrap;html=1;" vertex="1" parent="1">
          <mxGeometry x="295" y="1660" width="110" height="70" as="geometry" />
        </mxCell>
        <mxCell id="QkNpWJC_C5E6-QBLKThF-69" value="&lt;span style=&quot;font-size: 18px;&quot;&gt;房间图&lt;/span&gt;" style="ellipse;whiteSpace=wrap;html=1;" vertex="1" parent="1">
          <mxGeometry x="470" y="1710" width="110" height="70" as="geometry" />
        </mxCell>
        <mxCell id="QkNpWJC_C5E6-QBLKThF-70" value="&lt;font style=&quot;font-size: 18px;&quot;&gt;宿舍设施&lt;/font&gt;" style="ellipse;whiteSpace=wrap;html=1;" vertex="1" parent="1">
          <mxGeometry x="505" y="1790" width="110" height="70" as="geometry" />
        </mxCell>
        <mxCell id="QkNpWJC_C5E6-QBLKThF-71" value="" style="endArrow=none;html=1;rounded=0;entryX=0.5;entryY=1;entryDx=0;entryDy=0;exitX=0.5;exitY=0;exitDx=0;exitDy=0;" edge="1" parent="1" source="QkNpWJC_C5E6-QBLKThF-62" target="QkNpWJC_C5E6-QBLKThF-69">
          <mxGeometry width="50" height="50" relative="1" as="geometry">
            <mxPoint x="400" y="2050" as="sourcePoint" />
            <mxPoint x="450" y="2000" as="targetPoint" />
          </mxGeometry>
        </mxCell>
        <mxCell id="QkNpWJC_C5E6-QBLKThF-72" value="" style="endArrow=none;html=1;rounded=0;entryX=0.5;entryY=1;entryDx=0;entryDy=0;exitX=0.5;exitY=0;exitDx=0;exitDy=0;" edge="1" parent="1" source="QkNpWJC_C5E6-QBLKThF-62" target="QkNpWJC_C5E6-QBLKThF-70">
          <mxGeometry width="50" height="50" relative="1" as="geometry">
            <mxPoint x="360" y="2000" as="sourcePoint" />
            <mxPoint x="285" y="1760" as="targetPoint" />
          </mxGeometry>
        </mxCell>
        <mxCell id="QkNpWJC_C5E6-QBLKThF-73" value="&lt;font style=&quot;font-size: 18px;&quot;&gt;宿舍通知&lt;/font&gt;" style="rounded=0;whiteSpace=wrap;html=1;" vertex="1" parent="1">
          <mxGeometry x="300" y="2450" width="100" height="50" as="geometry" />
        </mxCell>
        <mxCell id="QkNpWJC_C5E6-QBLKThF-74" value="&lt;span style=&quot;font-size: 18px;&quot;&gt;通知标题&lt;/span&gt;" style="ellipse;whiteSpace=wrap;html=1;" vertex="1" parent="1">
          <mxGeometry x="100" y="2250" width="110" height="70" as="geometry" />
        </mxCell>
        <mxCell id="QkNpWJC_C5E6-QBLKThF-75" value="" style="endArrow=none;html=1;rounded=0;entryX=1;entryY=1;entryDx=0;entryDy=0;exitX=0.5;exitY=0;exitDx=0;exitDy=0;" edge="1" parent="1" source="QkNpWJC_C5E6-QBLKThF-73" target="QkNpWJC_C5E6-QBLKThF-74">
          <mxGeometry width="50" height="50" relative="1" as="geometry">
            <mxPoint x="400" y="2510" as="sourcePoint" />
            <mxPoint x="450" y="2460" as="targetPoint" />
          </mxGeometry>
        </mxCell>
        <mxCell id="QkNpWJC_C5E6-QBLKThF-76" value="&lt;span style=&quot;font-size: 18px;&quot;&gt;通知封面&lt;/span&gt;" style="ellipse;whiteSpace=wrap;html=1;" vertex="1" parent="1">
          <mxGeometry x="155" y="2170" width="110" height="70" as="geometry" />
        </mxCell>
        <mxCell id="QkNpWJC_C5E6-QBLKThF-77" value="" style="endArrow=none;html=1;rounded=0;entryX=0.5;entryY=1;entryDx=0;entryDy=0;exitX=0.5;exitY=0;exitDx=0;exitDy=0;" edge="1" parent="1" source="QkNpWJC_C5E6-QBLKThF-73" target="QkNpWJC_C5E6-QBLKThF-76">
          <mxGeometry width="50" height="50" relative="1" as="geometry">
            <mxPoint x="400" y="2510" as="sourcePoint" />
            <mxPoint x="450" y="2460" as="targetPoint" />
          </mxGeometry>
        </mxCell>
        <mxCell id="QkNpWJC_C5E6-QBLKThF-78" value="" style="endArrow=none;html=1;rounded=0;entryX=0.5;entryY=1;entryDx=0;entryDy=0;exitX=0.5;exitY=0;exitDx=0;exitDy=0;" edge="1" parent="1" source="QkNpWJC_C5E6-QBLKThF-73" target="QkNpWJC_C5E6-QBLKThF-79">
          <mxGeometry width="50" height="50" relative="1" as="geometry">
            <mxPoint x="585" y="2490" as="sourcePoint" />
            <mxPoint x="530" y="2350" as="targetPoint" />
          </mxGeometry>
        </mxCell>
        <mxCell id="QkNpWJC_C5E6-QBLKThF-79" value="&lt;span style=&quot;font-size: 18px;&quot;&gt;通知简介&lt;/span&gt;" style="ellipse;whiteSpace=wrap;html=1;" vertex="1" parent="1">
          <mxGeometry x="295" y="2120" width="110" height="70" as="geometry" />
        </mxCell>
        <mxCell id="QkNpWJC_C5E6-QBLKThF-80" value="&lt;span style=&quot;font-size: 18px;&quot;&gt;通知详情&lt;/span&gt;" style="ellipse;whiteSpace=wrap;html=1;" vertex="1" parent="1">
          <mxGeometry x="470" y="2170" width="110" height="70" as="geometry" />
        </mxCell>
        <mxCell id="QkNpWJC_C5E6-QBLKThF-81" value="&lt;font style=&quot;font-size: 18px;&quot;&gt;创建时间&lt;/font&gt;" style="ellipse;whiteSpace=wrap;html=1;" vertex="1" parent="1">
          <mxGeometry x="505" y="2250" width="110" height="70" as="geometry" />
        </mxCell>
        <mxCell id="QkNpWJC_C5E6-QBLKThF-82" value="" style="endArrow=none;html=1;rounded=0;entryX=0.5;entryY=1;entryDx=0;entryDy=0;exitX=0.5;exitY=0;exitDx=0;exitDy=0;" edge="1" parent="1" source="QkNpWJC_C5E6-QBLKThF-73" target="QkNpWJC_C5E6-QBLKThF-80">
          <mxGeometry width="50" height="50" relative="1" as="geometry">
            <mxPoint x="400" y="2510" as="sourcePoint" />
            <mxPoint x="450" y="2460" as="targetPoint" />
          </mxGeometry>
        </mxCell>
        <mxCell id="QkNpWJC_C5E6-QBLKThF-83" value="" style="endArrow=none;html=1;rounded=0;entryX=0.5;entryY=1;entryDx=0;entryDy=0;exitX=0.5;exitY=0;exitDx=0;exitDy=0;" edge="1" parent="1" source="QkNpWJC_C5E6-QBLKThF-73" target="QkNpWJC_C5E6-QBLKThF-81">
          <mxGeometry width="50" height="50" relative="1" as="geometry">
            <mxPoint x="360" y="2460" as="sourcePoint" />
            <mxPoint x="285" y="2220" as="targetPoint" />
          </mxGeometry>
        </mxCell>
        <mxCell id="QkNpWJC_C5E6-QBLKThF-84" value="&lt;font style=&quot;font-size: 18px;&quot;&gt;宿舍维修&lt;/font&gt;" style="rounded=0;whiteSpace=wrap;html=1;" vertex="1" parent="1">
          <mxGeometry x="335" y="2920" width="100" height="50" as="geometry" />
        </mxCell>
        <mxCell id="QkNpWJC_C5E6-QBLKThF-85" value="&lt;span style=&quot;font-size: 18px;&quot;&gt;宿舍号&lt;/span&gt;" style="ellipse;whiteSpace=wrap;html=1;" vertex="1" parent="1">
          <mxGeometry x="95" y="2740" width="110" height="70" as="geometry" />
        </mxCell>
        <mxCell id="QkNpWJC_C5E6-QBLKThF-86" value="" style="endArrow=none;html=1;rounded=0;entryX=1;entryY=1;entryDx=0;entryDy=0;exitX=0.5;exitY=0;exitDx=0;exitDy=0;" edge="1" parent="1" source="QkNpWJC_C5E6-QBLKThF-84" target="QkNpWJC_C5E6-QBLKThF-85">
          <mxGeometry width="50" height="50" relative="1" as="geometry">
            <mxPoint x="435" y="2980" as="sourcePoint" />
            <mxPoint x="485" y="2930" as="targetPoint" />
          </mxGeometry>
        </mxCell>
        <mxCell id="QkNpWJC_C5E6-QBLKThF-87" value="&lt;span style=&quot;font-size: 18px;&quot;&gt;宿舍楼栋&lt;/span&gt;" style="ellipse;whiteSpace=wrap;html=1;" vertex="1" parent="1">
          <mxGeometry x="125" y="2650" width="110" height="70" as="geometry" />
        </mxCell>
        <mxCell id="QkNpWJC_C5E6-QBLKThF-88" value="" style="endArrow=none;html=1;rounded=0;entryX=0.5;entryY=1;entryDx=0;entryDy=0;exitX=0.5;exitY=0;exitDx=0;exitDy=0;" edge="1" parent="1" source="QkNpWJC_C5E6-QBLKThF-84" target="QkNpWJC_C5E6-QBLKThF-87">
          <mxGeometry width="50" height="50" relative="1" as="geometry">
            <mxPoint x="435" y="2980" as="sourcePoint" />
            <mxPoint x="485" y="2930" as="targetPoint" />
          </mxGeometry>
        </mxCell>
        <mxCell id="QkNpWJC_C5E6-QBLKThF-89" value="" style="endArrow=none;html=1;rounded=0;entryX=0.5;entryY=1;entryDx=0;entryDy=0;exitX=0.5;exitY=0;exitDx=0;exitDy=0;" edge="1" parent="1" source="QkNpWJC_C5E6-QBLKThF-84" target="QkNpWJC_C5E6-QBLKThF-90">
          <mxGeometry width="50" height="50" relative="1" as="geometry">
            <mxPoint x="620" y="2960" as="sourcePoint" />
            <mxPoint x="565" y="2820" as="targetPoint" />
          </mxGeometry>
        </mxCell>
        <mxCell id="QkNpWJC_C5E6-QBLKThF-90" value="&lt;span style=&quot;font-size: 18px;&quot;&gt;报修单&lt;/span&gt;" style="ellipse;whiteSpace=wrap;html=1;" vertex="1" parent="1">
          <mxGeometry x="235" y="2590" width="110" height="70" as="geometry" />
        </mxCell>
        <mxCell id="QkNpWJC_C5E6-QBLKThF-91" value="&lt;span style=&quot;font-size: 18px;&quot;&gt;报修名称&lt;/span&gt;" style="ellipse;whiteSpace=wrap;html=1;" vertex="1" parent="1">
          <mxGeometry x="365" y="2560" width="110" height="70" as="geometry" />
        </mxCell>
        <mxCell id="QkNpWJC_C5E6-QBLKThF-92" value="&lt;font style=&quot;font-size: 18px;&quot;&gt;维修图片&lt;/font&gt;" style="ellipse;whiteSpace=wrap;html=1;" vertex="1" parent="1">
          <mxGeometry x="475" y="2620" width="110" height="70" as="geometry" />
        </mxCell>
        <mxCell id="QkNpWJC_C5E6-QBLKThF-93" value="" style="endArrow=none;html=1;rounded=0;entryX=0.5;entryY=1;entryDx=0;entryDy=0;exitX=0.5;exitY=0;exitDx=0;exitDy=0;" edge="1" parent="1" source="QkNpWJC_C5E6-QBLKThF-84" target="QkNpWJC_C5E6-QBLKThF-91">
          <mxGeometry width="50" height="50" relative="1" as="geometry">
            <mxPoint x="435" y="2980" as="sourcePoint" />
            <mxPoint x="485" y="2930" as="targetPoint" />
          </mxGeometry>
        </mxCell>
        <mxCell id="QkNpWJC_C5E6-QBLKThF-94" value="" style="endArrow=none;html=1;rounded=0;entryX=0.5;entryY=1;entryDx=0;entryDy=0;exitX=0.5;exitY=0;exitDx=0;exitDy=0;" edge="1" parent="1" source="QkNpWJC_C5E6-QBLKThF-84" target="QkNpWJC_C5E6-QBLKThF-92">
          <mxGeometry width="50" height="50" relative="1" as="geometry">
            <mxPoint x="395" y="2930" as="sourcePoint" />
            <mxPoint x="320" y="2690" as="targetPoint" />
          </mxGeometry>
        </mxCell>
        <mxCell id="QkNpWJC_C5E6-QBLKThF-95" value="&lt;font style=&quot;font-size: 18px;&quot;&gt;维修日期&lt;/font&gt;" style="ellipse;whiteSpace=wrap;html=1;" vertex="1" parent="1">
          <mxGeometry x="525" y="2710" width="110" height="70" as="geometry" />
        </mxCell>
        <mxCell id="QkNpWJC_C5E6-QBLKThF-96" value="" style="endArrow=none;html=1;rounded=0;entryX=0.5;entryY=1;entryDx=0;entryDy=0;exitX=0.5;exitY=0;exitDx=0;exitDy=0;" edge="1" parent="1" source="QkNpWJC_C5E6-QBLKThF-84" target="QkNpWJC_C5E6-QBLKThF-95">
          <mxGeometry width="50" height="50" relative="1" as="geometry">
            <mxPoint x="395" y="2930" as="sourcePoint" />
            <mxPoint x="500" y="2670" as="targetPoint" />
          </mxGeometry>
        </mxCell>
        <mxCell id="QkNpWJC_C5E6-QBLKThF-97" value="&lt;font style=&quot;font-size: 18px;&quot;&gt;学生&lt;/font&gt;" style="rounded=0;whiteSpace=wrap;html=1;" vertex="1" parent="1">
          <mxGeometry x="315" y="3380" width="100" height="50" as="geometry" />
        </mxCell>
        <mxCell id="QkNpWJC_C5E6-QBLKThF-98" value="&lt;span style=&quot;font-size: 18px;&quot;&gt;学生学号&lt;/span&gt;" style="ellipse;whiteSpace=wrap;html=1;" vertex="1" parent="1">
          <mxGeometry x="75" y="3200" width="110" height="70" as="geometry" />
        </mxCell>
        <mxCell id="QkNpWJC_C5E6-QBLKThF-99" value="" style="endArrow=none;html=1;rounded=0;entryX=1;entryY=1;entryDx=0;entryDy=0;exitX=0.5;exitY=0;exitDx=0;exitDy=0;" edge="1" parent="1" source="QkNpWJC_C5E6-QBLKThF-97" target="QkNpWJC_C5E6-QBLKThF-98">
          <mxGeometry width="50" height="50" relative="1" as="geometry">
            <mxPoint x="415" y="3440" as="sourcePoint" />
            <mxPoint x="465" y="3390" as="targetPoint" />
          </mxGeometry>
        </mxCell>
        <mxCell id="QkNpWJC_C5E6-QBLKThF-100" value="&lt;span style=&quot;font-size: 18px;&quot;&gt;密码&lt;/span&gt;" style="ellipse;whiteSpace=wrap;html=1;" vertex="1" parent="1">
          <mxGeometry x="105" y="3110" width="110" height="70" as="geometry" />
        </mxCell>
        <mxCell id="QkNpWJC_C5E6-QBLKThF-101" value="" style="endArrow=none;html=1;rounded=0;entryX=0.5;entryY=1;entryDx=0;entryDy=0;exitX=0.5;exitY=0;exitDx=0;exitDy=0;" edge="1" parent="1" source="QkNpWJC_C5E6-QBLKThF-97" target="QkNpWJC_C5E6-QBLKThF-100">
          <mxGeometry width="50" height="50" relative="1" as="geometry">
            <mxPoint x="415" y="3440" as="sourcePoint" />
            <mxPoint x="465" y="3390" as="targetPoint" />
          </mxGeometry>
        </mxCell>
        <mxCell id="QkNpWJC_C5E6-QBLKThF-102" value="" style="endArrow=none;html=1;rounded=0;entryX=0.5;entryY=1;entryDx=0;entryDy=0;exitX=0.5;exitY=0;exitDx=0;exitDy=0;" edge="1" parent="1" source="QkNpWJC_C5E6-QBLKThF-97" target="QkNpWJC_C5E6-QBLKThF-103">
          <mxGeometry width="50" height="50" relative="1" as="geometry">
            <mxPoint x="600" y="3420" as="sourcePoint" />
            <mxPoint x="545" y="3280" as="targetPoint" />
          </mxGeometry>
        </mxCell>
        <mxCell id="QkNpWJC_C5E6-QBLKThF-103" value="&lt;span style=&quot;font-size: 18px;&quot;&gt;学生姓名&lt;/span&gt;" style="ellipse;whiteSpace=wrap;html=1;" vertex="1" parent="1">
          <mxGeometry x="215" y="3050" width="110" height="70" as="geometry" />
        </mxCell>
        <mxCell id="QkNpWJC_C5E6-QBLKThF-104" value="&lt;span style=&quot;font-size: 18px;&quot;&gt;性别&lt;/span&gt;" style="ellipse;whiteSpace=wrap;html=1;" vertex="1" parent="1">
          <mxGeometry x="345" y="3020" width="110" height="70" as="geometry" />
        </mxCell>
        <mxCell id="QkNpWJC_C5E6-QBLKThF-105" value="&lt;font style=&quot;font-size: 18px;&quot;&gt;班级&lt;/font&gt;" style="ellipse;whiteSpace=wrap;html=1;" vertex="1" parent="1">
          <mxGeometry x="455" y="3080" width="110" height="70" as="geometry" />
        </mxCell>
        <mxCell id="QkNpWJC_C5E6-QBLKThF-106" value="" style="endArrow=none;html=1;rounded=0;entryX=0.5;entryY=1;entryDx=0;entryDy=0;exitX=0.5;exitY=0;exitDx=0;exitDy=0;" edge="1" parent="1" source="QkNpWJC_C5E6-QBLKThF-97" target="QkNpWJC_C5E6-QBLKThF-104">
          <mxGeometry width="50" height="50" relative="1" as="geometry">
            <mxPoint x="415" y="3440" as="sourcePoint" />
            <mxPoint x="465" y="3390" as="targetPoint" />
          </mxGeometry>
        </mxCell>
        <mxCell id="QkNpWJC_C5E6-QBLKThF-107" value="" style="endArrow=none;html=1;rounded=0;entryX=0.5;entryY=1;entryDx=0;entryDy=0;exitX=0.5;exitY=0;exitDx=0;exitDy=0;" edge="1" parent="1" source="QkNpWJC_C5E6-QBLKThF-97" target="QkNpWJC_C5E6-QBLKThF-105">
          <mxGeometry width="50" height="50" relative="1" as="geometry">
            <mxPoint x="375" y="3390" as="sourcePoint" />
            <mxPoint x="300" y="3150" as="targetPoint" />
          </mxGeometry>
        </mxCell>
        <mxCell id="QkNpWJC_C5E6-QBLKThF-108" value="&lt;font style=&quot;font-size: 18px;&quot;&gt;宿舍号&lt;/font&gt;" style="ellipse;whiteSpace=wrap;html=1;" vertex="1" parent="1">
          <mxGeometry x="505" y="3170" width="110" height="70" as="geometry" />
        </mxCell>
        <mxCell id="QkNpWJC_C5E6-QBLKThF-109" value="" style="endArrow=none;html=1;rounded=0;entryX=0.5;entryY=1;entryDx=0;entryDy=0;exitX=0.5;exitY=0;exitDx=0;exitDy=0;" edge="1" parent="1" source="QkNpWJC_C5E6-QBLKThF-97" target="QkNpWJC_C5E6-QBLKThF-108">
          <mxGeometry width="50" height="50" relative="1" as="geometry">
            <mxPoint x="375" y="3390" as="sourcePoint" />
            <mxPoint x="480" y="3130" as="targetPoint" />
          </mxGeometry>
        </mxCell>
      </root>
    </mxGraphModel>
  </diagram>
</mxfile>
